<svg width="21" height="20" viewBox="0 0 21 20" fill="none" xmlns="http://www.w3.org/2000/svg"><path d="M1.79701 2.87735C2.02243 1.91635 2.77279 1.16599 3.7338 0.940565V0.940565C4.56663 0.74521 5.43337 0.745209 6.2662 0.940565V0.940565C7.22721 1.16599 7.97757 1.91635 8.20299 2.87735V2.87735C8.39835 3.71019 8.39835 4.57692 8.20299 5.40976V5.40976C7.97757 6.37076 7.22721 7.12112 6.2662 7.34654V7.34654C5.43337 7.5419 4.56663 7.5419 3.7338 7.34654V7.34654C2.77279 7.12112 2.02243 6.37076 1.79701 5.40976V5.40976C1.60166 4.57693 1.60166 3.71018 1.79701 2.87735V2.87735Z" stroke="currentColor" stroke-width="1.5"></path><path d="M1.79701 13.8774C2.02243 12.9163 2.77279 12.166 3.7338 11.9406V11.9406C4.56663 11.7452 5.43337 11.7452 6.2662 11.9406V11.9406C7.22721 12.166 7.97757 12.9163 8.20299 13.8774V13.8774C8.39835 14.7102 8.39835 15.5769 8.20299 16.4098V16.4098C7.97757 17.3708 7.22721 18.1211 6.2662 18.3465V18.3465C5.43337 18.5419 4.56663 18.5419 3.7338 18.3465V18.3465C2.77279 18.1211 2.02243 17.3708 1.79701 16.4098V16.4098C1.60166 15.5769 1.60166 14.7102 1.79701 13.8774V13.8774Z" class="icon_main" stroke-width="1.5" style="stroke: #477BCE;"></path><path d="M12.797 2.87735C13.0224 1.91635 13.7728 1.16599 14.7338 0.940565V0.940565C15.5666 0.74521 16.4334 0.745209 17.2662 0.940565V0.940565C18.2272 1.16599 18.9776 1.91635 19.203 2.87735V2.87735C19.3983 3.71019 19.3983 4.57692 19.203 5.40976V5.40976C18.9776 6.37076 18.2272 7.12112 17.2662 7.34654V7.34654C16.4334 7.5419 15.5666 7.5419 14.7338 7.34654V7.34654C13.7728 7.12112 13.0224 6.37076 12.797 5.40976V5.40976C12.6017 4.57693 12.6017 3.71018 12.797 2.87735V2.87735Z" stroke="currentColor" stroke-width="1.5"></path><path d="M12.797 13.8774C13.0224 12.9163 13.7728 12.166 14.7338 11.9406V11.9406C15.5666 11.7452 16.4334 11.7452 17.2662 11.9406V11.9406C18.2272 12.166 18.9776 12.9163 19.203 13.8774V13.8774C19.3983 14.7102 19.3983 15.5769 19.203 16.4098V16.4098C18.9776 17.3708 18.2272 18.1211 17.2662 18.3465V18.3465C16.4334 18.5419 15.5666 18.5419 14.7338 18.3465V18.3465C13.7728 18.1211 13.0224 17.3708 12.797 16.4098V16.4098C12.6017 15.5769 12.6017 14.7102 12.797 13.8774V13.8774Z" stroke="currentColor" stroke-width="1.5"></path></svg>