<svg width="21" height="21" viewBox="0 0 21 21" fill="none" xmlns="http://www.w3.org/2000/svg"><path d="M1.85288 13.6931L1.1227 13.8644L1.85288 13.6931ZM1.85288 7.59399L1.1227 7.42271L1.85288 7.59399ZM19.1471 7.59399L18.4169 7.76527L19.1471 7.59399ZM19.1471 13.6931L18.4169 13.5218L19.1471 13.6931ZM13.5496 19.2907L13.3783 18.5605L13.5496 19.2907ZM7.45044 19.2907L7.27916 20.0209L7.45044 19.2907ZM7.45043 1.99643L7.27916 1.26625L7.45043 1.99643ZM13.5496 1.99643L13.3783 2.72661L13.5496 1.99643ZM2.58306 13.5219C2.13898 11.6287 2.13898 9.65843 2.58306 7.76526L1.1227 7.42271C0.625768 9.54119 0.625768 11.7459 1.1227 13.8644L2.58306 13.5219ZM18.4169 7.76527C18.861 9.65843 18.861 11.6287 18.4169 13.5218L19.8773 13.8644C20.3742 11.7459 20.3742 9.54119 19.8773 7.42271L18.4169 7.76527ZM13.3783 18.5605C11.4851 19.0046 9.51488 19.0046 7.62171 18.5605L7.27916 20.0209C9.39764 20.5178 11.6024 20.5178 13.7208 20.0209L13.3783 18.5605ZM7.62171 2.72661C9.51488 2.28254 11.4851 2.28254 13.3783 2.72661L13.7208 1.26625C11.6024 0.769323 9.39763 0.769323 7.27916 1.26625L7.62171 2.72661ZM7.62171 18.5605C5.12161 17.9741 3.1695 16.022 2.58306 13.5219L1.1227 13.8644C1.83924 16.9192 4.22441 19.3043 7.27916 20.0209L7.62171 18.5605ZM13.7208 20.0209C16.7756 19.3043 19.1608 16.9191 19.8773 13.8644L18.4169 13.5218C17.8305 16.022 15.8784 17.9741 13.3783 18.5605L13.7208 20.0209ZM13.3783 2.72661C15.8784 3.31306 17.8305 5.26516 18.4169 7.76527L19.8773 7.42271C19.1608 4.36797 16.7756 1.9828 13.7208 1.26625L13.3783 2.72661ZM7.27916 1.26625C4.22441 1.9828 1.83924 4.36796 1.1227 7.42271L2.58306 7.76526C3.1695 5.26516 5.12161 3.31306 7.62171 2.72661L7.27916 1.26625Z" class="icon_main_fill" style="stroke: #477BCE;"></path><path d="M1.1227 13.8644C1.21729 14.2677 1.62089 14.5179 2.02416 14.4233C2.42742 14.3287 2.67765 13.9251 2.58306 13.5219L1.1227 13.8644ZM1.85288 7.59399L1.1227 7.42271L1.85288 7.59399ZM19.1471 7.59399L18.4169 7.76527L19.1471 7.59399ZM19.1471 13.6931L18.4169 13.5218L19.1471 13.6931ZM13.3783 18.5605C12.975 18.6551 12.7248 19.0587 12.8194 19.462C12.914 19.8652 13.3176 20.1155 13.7208 20.0209L13.3783 18.5605ZM7.45043 1.99643L7.27916 1.26625L7.45043 1.99643ZM13.5496 1.99643L13.3783 2.72661L13.5496 1.99643ZM2.58306 13.5219C2.13898 11.6287 2.13898 9.65843 2.58306 7.76526L1.1227 7.42271C0.625768 9.54119 0.625768 11.7459 1.1227 13.8644L2.58306 13.5219ZM18.4169 7.76527C18.861 9.65843 18.861 11.6287 18.4169 13.5218L19.8773 13.8644C20.3742 11.7459 20.3742 9.54119 19.8773 7.42271L18.4169 7.76527ZM7.62171 2.72661C9.51488 2.28254 11.4851 2.28254 13.3783 2.72661L13.7208 1.26625C11.6024 0.769323 9.39763 0.769323 7.27916 1.26625L7.62171 2.72661ZM13.7208 20.0209C16.7756 19.3043 19.1608 16.9191 19.8773 13.8644L18.4169 13.5218C17.8305 16.022 15.8784 17.9741 13.3783 18.5605L13.7208 20.0209ZM13.3783 2.72661C15.8784 3.31306 17.8305 5.26516 18.4169 7.76527L19.8773 7.42271C19.1608 4.36797 16.7756 1.9828 13.7208 1.26625L13.3783 2.72661ZM7.27916 1.26625C4.22441 1.9828 1.83924 4.36796 1.1227 7.42271L2.58306 7.76526C3.1695 5.26516 5.12161 3.31306 7.62171 2.72661L7.27916 1.26625Z" fill="currentColor"></path><path d="M6.35716 10.8668C6.04928 11.1439 6.02432 11.6181 6.30142 11.926C6.57851 12.2339 7.05273 12.2588 7.36061 11.9817L6.35716 10.8668ZM8.5654 9.88841L9.06712 10.4459V10.4459L8.5654 9.88841ZM10.1269 10.0846L10.7509 9.66857L10.7509 9.66857L10.1269 10.0846ZM10.8728 11.2035L10.2488 11.6196L10.2488 11.6196L10.8728 11.2035ZM12.4343 11.3997L12.936 11.9572L12.4343 11.3997ZM14.6425 10.4213C14.9504 10.1442 14.9754 9.67002 14.6983 9.36214C14.4212 9.05425 13.947 9.02929 13.6391 9.30639L14.6425 10.4213ZM11.5744 11.9316L11.4809 12.6757H11.4809L11.5744 11.9316ZM9.42528 9.35657L9.33178 10.1007L9.33178 10.1007L9.42528 9.35657ZM7.36061 11.9817L9.06712 10.4459L8.06367 9.33094L6.35716 10.8668L7.36061 11.9817ZM9.50283 10.5006L10.2488 11.6196L11.4969 10.7875L10.7509 9.66857L9.50283 10.5006ZM12.936 11.9572L14.6425 10.4213L13.6391 9.30639L11.9326 10.8422L12.936 11.9572ZM10.2488 11.6196C10.3914 11.8334 10.5412 12.0613 10.6917 12.2302C10.8564 12.4148 11.1071 12.6287 11.4809 12.6757L11.6679 11.1874C11.7268 11.1948 11.7769 11.2161 11.8098 11.237C11.8359 11.2534 11.837 11.2607 11.8113 11.2319C11.7855 11.203 11.7485 11.1559 11.6931 11.0773C11.6381 10.9992 11.5761 10.9063 11.4969 10.7875L10.2488 11.6196ZM11.9326 10.8422C11.8264 10.9378 11.7434 11.0125 11.6707 11.0745C11.5976 11.1369 11.5501 11.1734 11.518 11.195C11.4859 11.2166 11.4888 11.2098 11.5181 11.2003C11.5552 11.1883 11.609 11.18 11.6679 11.1874L11.4809 12.6757C11.8547 12.7227 12.1505 12.5774 12.3558 12.4393C12.5434 12.3129 12.7449 12.1292 12.936 11.9572L11.9326 10.8422ZM9.06712 10.4459C9.17327 10.3503 9.25633 10.2757 9.32899 10.2136C9.40212 10.1512 9.44957 10.1147 9.4817 10.0931C9.51376 10.0715 9.51087 10.0783 9.48157 10.0878C9.44448 10.0999 9.39072 10.1081 9.33178 10.1007L9.51878 8.61242C9.14495 8.56545 8.84916 8.71069 8.64392 8.84888C8.45626 8.97523 8.25475 9.15897 8.06367 9.33094L9.06712 10.4459ZM10.7509 9.66857C10.6083 9.45469 10.4585 9.22681 10.3079 9.05795C10.1433 8.87329 9.8926 8.65939 9.51878 8.61242L9.33178 10.1007C9.27284 10.0933 9.22279 10.072 9.18984 10.0512C9.1638 10.0347 9.16268 10.0274 9.1884 10.0563C9.21418 10.0852 9.25114 10.1322 9.30655 10.2108C9.36161 10.2889 9.42361 10.3818 9.50283 10.5006L10.7509 9.66857Z" class="icon_main_fill" style="stroke: #477BCE;"></path></svg>