<svg width="18" height="18" viewBox="0 0 18 18" fill="none" xmlns="http://www.w3.org/2000/svg">
<rect x="9.83398" y="4.83334" width="3.33333" height="3.33333" rx="1.66667" stroke="currentColor" stroke-width="1.5"></rect>
<path d="M2.93174 13.3345L4.38082 11.8854C5.73499 10.5312 7.93054 10.5312 9.28471 11.8854L10.7338 13.3345M10.7338 13.3345L11.3207 12.7475C12.4021 11.6661 14.1786 11.7467 15.1576 12.9216L15.5017 13.3345M10.7338 13.3345L12.901 15.5017M1.79406 11.5413C1.40198 9.86979 1.40198 8.13021 1.79406 6.45869C2.33698 4.14417 4.14417 2.33698 6.45869 1.79406C8.13021 1.40198 9.86979 1.40198 11.5413 1.79406C13.8558 2.33698 15.663 4.14417 16.2059 6.4587C16.598 8.13021 16.598 9.86979 16.2059 11.5413C15.663 13.8558 13.8558 15.663 11.5413 16.2059C9.86979 16.598 8.13021 16.598 6.4587 16.2059C4.14418 15.663 2.33698 13.8558 1.79406 11.5413Z" class="icon_main" stroke-width="1.5" stroke-linecap="round" stroke-linejoin="round" style="stroke: #477BCE;"></path>
</svg>