<svg width="16" height="19" viewBox="0 0 16 19" fill="none" xmlns="http://www.w3.org/2000/svg">
<path d="M9.97067 15.6523L10.706 15.7998L9.97067 15.6523ZM9.91975 15.9061L10.6551 16.0536V16.0536L9.91975 15.9061ZM6.08025 15.9061L6.8156 15.7585L6.8156 15.7585L6.08025 15.9061ZM6.02933 15.6523L5.29399 15.7998V15.7998L6.02933 15.6523ZM8.62169 17.3476L8.43324 16.6217L8.43324 16.6217L8.62169 17.3476ZM8.48405 17.3834L8.67249 18.1093L8.67249 18.1093L8.48405 17.3834ZM7.51595 17.3834L7.7044 16.6574L7.7044 16.6574L7.51595 17.3834ZM7.37831 17.3476L7.18987 18.0736L7.18987 18.0736L7.37831 17.3476ZM6.89898 14.9147C7.15823 14.5917 7.10651 14.1196 6.78346 13.8604C6.4604 13.6011 5.98836 13.6528 5.7291 13.9759L6.89898 14.9147ZM10.2709 13.9759C10.0116 13.6528 9.5396 13.6011 9.21655 13.8604C8.89349 14.1196 8.84177 14.5917 9.10102 14.9147L10.2709 13.9759ZM9.23532 15.5048L9.1844 15.7585L10.6551 16.0536L10.706 15.7998L9.23532 15.5048ZM6.8156 15.7585L6.76468 15.5048L5.29399 15.7998L5.34491 16.0536L6.8156 15.7585ZM8.43324 16.6217L8.2956 16.6574L8.67249 18.1093L8.81013 18.0736L8.43324 16.6217ZM7.7044 16.6574L7.56676 16.6217L7.18987 18.0736L7.32751 18.1093L7.7044 16.6574ZM6.76468 15.5048C6.72071 15.2856 6.77803 15.0654 6.89898 14.9147L5.7291 13.9759C5.31987 14.4859 5.1659 15.1614 5.29399 15.7998L6.76468 15.5048ZM10.706 15.7998C10.8341 15.1614 10.6801 14.4859 10.2709 13.9759L9.10102 14.9147C9.22197 15.0654 9.27929 15.2856 9.23532 15.5048L10.706 15.7998ZM8.2956 16.6574C8.10093 16.7079 7.89907 16.7079 7.7044 16.6574L7.32751 18.1093C7.76934 18.224 8.23066 18.224 8.67249 18.1093L8.2956 16.6574ZM5.34491 16.0536C5.53858 17.0189 6.23394 17.8254 7.18987 18.0736L7.56676 16.6217C7.22136 16.532 6.90778 16.218 6.8156 15.7585L5.34491 16.0536ZM9.1844 15.7585C9.09222 16.218 8.77864 16.532 8.43324 16.6217L8.81013 18.0736C9.76605 17.8254 10.4614 17.0189 10.6551 16.0536L9.1844 15.7585Z" class="icon_main_fill" style="stroke: #477BCE;"></path>
<path d="M2.43061 5.70624L1.7072 5.50829L2.43061 5.70624ZM6.2757 1.72296L6.50491 2.43707V2.43707L6.2757 1.72296ZM2.38271 5.88129L1.6593 5.68334L2.38271 5.88129ZM2.20263 9.63152L2.94166 9.50374L2.94166 9.50374L2.20263 9.63152ZM2.22355 9.75254L1.48452 9.88033L1.48452 9.88033L2.22355 9.75254ZM2.26211 9.94669L2.5576 10.636C2.88965 10.4937 3.07304 10.1348 2.99388 9.78235L2.26211 9.94669ZM2.67494 13.8802L2.82324 13.145H2.82324L2.67494 13.8802ZM3.00364 13.9465L2.85533 14.6817H2.85533L3.00364 13.9465ZM12.9964 13.9465L13.1447 14.6817H13.1447L12.9964 13.9465ZM13.3251 13.8802L13.1768 13.145H13.1768L13.3251 13.8802ZM13.7368 9.94621L13.0059 9.77788C12.9244 10.1316 13.108 10.4929 13.4417 10.6357L13.7368 9.94621ZM13.7805 9.72928L14.5195 9.85707L14.5195 9.85706L13.7805 9.72928ZM13.8026 9.60102L13.0636 9.47323V9.47323L13.8026 9.60102ZM13.6403 5.90725L12.9153 6.09935V6.09935L13.6403 5.90725ZM13.5762 5.66551L14.3012 5.47342V5.47342L13.5762 5.66551ZM9.84132 1.72865L10.0744 1.0158V1.0158L9.84132 1.72865ZM3.15401 5.90418C3.6001 4.27394 4.86976 2.96192 6.50491 2.43707L6.04648 1.00884C3.93935 1.68518 2.29006 3.37819 1.7072 5.50829L3.15401 5.90418ZM3.10611 6.07923L3.15401 5.90418L1.7072 5.50829L1.6593 5.68334L3.10611 6.07923ZM2.94166 9.50374C2.74459 8.364 2.80069 7.19543 3.10611 6.07923L1.6593 5.68334C1.29582 7.01169 1.22902 8.40267 1.46359 9.75931L2.94166 9.50374ZM2.96259 9.62476L2.94166 9.50374L1.46359 9.75931L1.48452 9.88033L2.96259 9.62476ZM2.99388 9.78235C2.9822 9.73034 2.97176 9.6778 2.96259 9.62476L1.48452 9.88033C1.49793 9.9579 1.51322 10.0348 1.53033 10.111L2.99388 9.78235ZM1.75 11.8495C1.75 11.311 2.07785 10.8417 2.5576 10.636L1.96662 9.25735C0.961241 9.68831 0.25 10.6833 0.25 11.8495H1.75ZM2.82324 13.145C2.19369 13.018 1.75 12.4726 1.75 11.8495H0.25C0.25 13.1965 1.20678 14.3491 2.52663 14.6154L2.82324 13.145ZM3.15195 13.2113L2.82324 13.145L2.52663 14.6154L2.85533 14.6817L3.15195 13.2113ZM12.8481 13.2113C9.64888 13.8567 6.35112 13.8567 3.15194 13.2113L2.85533 14.6817C6.25027 15.3665 9.74973 15.3665 13.1447 14.6817L12.8481 13.2113ZM13.1768 13.145L12.8481 13.2113L13.1447 14.6817L13.4734 14.6154L13.1768 13.145ZM14.25 11.8495C14.25 12.4726 13.8063 13.018 13.1768 13.145L13.4734 14.6154C14.7932 14.3491 15.75 13.1965 15.75 11.8495H14.25ZM13.4417 10.6357C13.9218 10.8412 14.25 11.3107 14.25 11.8495H15.75C15.75 10.6827 15.038 9.68732 14.0319 9.2567L13.4417 10.6357ZM13.0414 9.60149C13.0312 9.66093 13.0193 9.71974 13.0059 9.77788L14.4676 10.1145C14.4872 10.0296 14.5045 9.94371 14.5195 9.85707L13.0414 9.60149ZM13.0636 9.47323L13.0414 9.60149L14.5195 9.85706L14.5417 9.7288L13.0636 9.47323ZM12.9153 6.09935C13.2071 7.20071 13.2577 8.35103 13.0636 9.47323L14.5417 9.7288C14.7725 8.39373 14.7124 7.0252 14.3652 5.71516L12.9153 6.09935ZM12.8512 5.8576L12.9153 6.09935L14.3652 5.71516L14.3012 5.47342L12.8512 5.8576ZM9.6082 2.4415C11.2069 2.96432 12.4257 4.25165 12.8512 5.8576L14.3012 5.47342C13.7442 3.37117 12.1516 1.69508 10.0744 1.0158L9.6082 2.4415ZM6.50491 2.43707C7.51151 2.11398 8.60678 2.11401 9.6082 2.4415L10.0744 1.0158C8.7694 0.589016 7.3505 0.59028 6.04648 1.00884L6.50491 2.43707Z" fill="currentColor"></path>
</svg>