<svg width="18" height="18" viewBox="0 0 18 18" fill="none" xmlns="http://www.w3.org/2000/svg">
<path d="M5.18859 9.22351C4.88701 7.93782 4.88701 6.59978 5.18859 5.31409C5.60618 3.53383 6.99623 2.14378 8.7765 1.72619C10.0622 1.4246 11.4002 1.4246 12.6859 1.72619C14.4662 2.14378 15.8562 3.53383 16.2738 5.3141C16.5754 6.59978 16.5754 7.93782 16.2738 9.2235C15.8562 11.0038 14.4662 12.3938 12.6859 12.8114C11.4002 13.113 10.0622 13.113 8.7765 12.8114M5.18859 9.22351C5.60618 11.0038 6.99623 12.3938 8.7765 12.8114M5.18859 9.22351C4.9987 8.41398 4.92837 7.58371 4.97761 6.75881C4.90798 6.77302 4.83852 6.78825 4.76922 6.8045C3.24328 7.16244 2.05181 8.35391 1.69387 9.87985C1.43538 10.9819 1.43538 12.1288 1.69387 13.2308C2.05181 14.7567 3.24328 15.9482 4.76922 16.3061C5.87124 16.5646 7.01813 16.5646 8.12014 16.3061C9.64609 15.9482 10.8376 14.7567 11.1955 13.2308C11.2117 13.1615 11.227 13.092 11.2412 13.0224C10.4163 13.0716 9.58602 13.0013 8.7765 12.8114" stroke="currentColor" stroke-width="1.5"></path>
<path d="M5.18908 9.22351C4.88749 7.93782 4.8875 6.59978 5.18908 5.31409C5.60667 3.53383 6.99672 2.14378 8.77699 1.72619C10.0627 1.4246 11.4007 1.4246 12.6864 1.72619C14.4667 2.14378 15.8567 3.53383 16.2743 5.3141C16.5759 6.59978 16.5759 7.93782 16.2743 9.2235C15.8567 11.0038 14.4667 12.3938 12.6864 12.8114C11.4007 13.113 10.0627 13.113 8.77699 12.8114M5.18908 9.22351C5.60667 11.0038 6.99672 12.3938 8.77699 12.8114M5.18908 9.22351C4.99919 8.41398 4.92886 7.58371 4.9781 6.75881M8.77699 12.8114C9.58651 13.0013 10.4168 13.0716 11.2417 13.0224" class="icon_main" stroke-width="1.5" style="stroke: #477BCE;"></path>
</svg>