<svg width="18" height="18" viewBox="0 0 18 18" fill="none" xmlns="http://www.w3.org/2000/svg">
					<path d="M1.79406 6.45869C2.33698 4.14417 4.14417 2.33698 6.45869 1.79406C8.13021 1.40198 9.86979 1.40198 11.5413 1.79406C13.8558 2.33698 15.663 4.14417 16.2059 6.4587C16.598 8.13021 16.598 9.86979 16.2059 11.5413C15.663 13.8558 13.8558 15.663 11.5413 16.2059C9.86979 16.598 8.13021 16.598 6.4587 16.2059C4.14418 15.663 2.33698 13.8558 1.79406 11.5413C1.40198 9.86979 1.40198 8.13021 1.79406 6.45869Z" stroke="currentColor" stroke-width="1.5"></path>
					<path d="M16.2059 6.4587C15.663 4.14417 13.8558 2.33698 11.5413 1.79406C9.86979 1.40198 8.13021 1.40198 6.45869 1.79406C4.14417 2.33698 2.33698 4.14417 1.79406 6.45869C1.40198 8.13021 1.40198 9.86979 1.79406 11.5413C2.33698 13.8558 4.14418 15.663 6.4587 16.2059C8.13021 16.598 9.86979 16.598 11.5413 16.2059" class="icon_main" stroke-width="1.5" stroke-linecap="round" style="stroke: #477BCE;"></path>
					<path d="M7.48515 8.4132C7.65455 7.9897 7.99012 7.65412 8.41363 7.48472L10.1117 6.80548C10.792 6.53338 11.4671 7.20845 11.1949 7.88871L10.5157 9.5868C10.3463 10.0103 10.0107 10.3459 9.58723 10.5153L7.88913 11.1945C7.20887 11.4666 6.53381 10.7916 6.80591 10.1113L7.48515 8.4132Z" stroke="currentColor" stroke-width="1.5" stroke-linecap="round" stroke-linejoin="round"></path>
					</svg>