<svg width="17" height="19" viewBox="0 0 17 19" fill="none" xmlns="http://www.w3.org/2000/svg"><path d="M13 6.77964C11.182 7.38565 8.7579 4.9616 9.36392 3.14355M10.1109 2.39661L6.19403 6.31344C4.49123 8.01624 3.28322 10.1498 2.69917 12.486L2.50991 13.2431C2.45094 13.479 2.6646 13.6926 2.90049 13.6336L3.65752 13.4444C5.99375 12.8603 8.12732 11.6523 9.83012 9.94952L13.7469 6.0327C14.2291 5.55052 14.5 4.89655 14.5 4.21465C14.5 2.79468 13.3489 1.64355 11.9289 1.64355C11.247 1.64355 10.593 1.91444 10.1109 2.39661Z" stroke="currentColor" stroke-width="1.5"></path><path d="M10.1109 2.39661C10.5931 1.91444 11.247 1.64355 11.9289 1.64355C13.3489 1.64355 14.5 2.79468 14.5 4.21465C14.5 4.89655 14.2292 5.55052 13.747 6.0327L13 6.77964C11.182 7.38565 8.75794 4.9616 9.36395 3.14355L10.1109 2.39661Z" class="icon_main" stroke-width="1.5" style="stroke: #477BCE;"></path><path d="M15.5 17.6436H1.5" class="icon_main" stroke-width="1.5" stroke-linecap="round" stroke-linejoin="round"></path></svg>