<svg width="18" height="18" viewBox="0 0 18 18" fill="none" xmlns="http://www.w3.org/2000/svg">
<path d="M9 1.5C8.14723 1.5 7.29445 1.59802 6.45869 1.79406C4.14417 2.33698 2.33698 4.14417 1.79406 6.45869C1.40198 8.13021 1.40198 9.86979 1.79406 11.5413C2.33698 13.8558 4.14418 15.663 6.4587 16.2059C8.13021 16.598 9.86979 16.598 11.5413 16.2059C13.8558 15.663 15.663 13.8558 16.2059 11.5413C16.402 10.7055 16.5 9.85276 16.5 8.99998" stroke="currentColor" stroke-width="1.5" stroke-linecap="round"></path>
<path d="M1.79406 11.5413C1.40198 9.86979 1.40198 8.13021 1.79406 6.45869C2.33698 4.14417 4.14417 2.33698 6.45869 1.79406C7.29445 1.59802 8.14723 1.5 9 1.5M6.4587 16.2059C8.13021 16.598 9.86979 16.598 11.5413 16.2059C13.8558 15.663 15.663 13.8558 16.2059 11.5413C16.402 10.7055 16.5 9.85276 16.5 8.99998" class="icon_main" stroke-width="1.5" stroke-linecap="round" style="stroke: #477BCE;"></path>
<path d="M16.5007 4.41665C16.5007 5.56724 15.5679 6.49998 14.4173 6.49998C13.2667 6.49998 12.334 5.56724 12.334 4.41665C12.334 3.26605 13.2667 2.33331 14.4173 2.33331C15.5679 2.33331 16.5007 3.26605 16.5007 4.41665Z" stroke="currentColor" stroke-width="1.5"></path>
</svg>