<svg width="18" height="18" viewBox="0 0 18 18" fill="none" xmlns="http://www.w3.org/2000/svg">
<path d="M16.4993 9.00004H13.166M14.8327 10.6667L14.8327 7.33337" stroke="currentColor" stroke-width="1.5" stroke-linecap="round"></path>
<path d="M1.5 14.9262C1.5 12.9153 2.91444 11.2024 4.8367 10.8855L5.00985 10.857C6.5491 10.6032 8.11757 10.6032 9.65682 10.857L9.82996 10.8855C11.7522 11.2024 13.1667 12.9153 13.1667 14.9262C13.1667 15.7954 12.4846 16.5 11.6432 16.5H3.02344C2.18207 16.5 1.5 15.7954 1.5 14.9262Z" class="icon_main" stroke-width="1.5" style="stroke: #477BCE;"></path>
<path d="M10.7352 4.78125C10.7352 6.59343 9.21177 8.0625 7.33247 8.0625C5.45316 8.0625 3.92969 6.59343 3.92969 4.78125C3.92969 2.96907 5.45316 1.5 7.33247 1.5C9.21177 1.5 10.7352 2.96907 10.7352 4.78125Z" stroke="currentColor" stroke-width="1.5"></path>
</svg>