<svg width="21" height="21" viewBox="0 0 21 21" fill="none" xmlns="http://www.w3.org/2000/svg"><path d="M16.98 17.1799H19.5M8.66898 10.6872H19.5M11.301 4.19434L1.5 4.19434M19.5 4.19434H16.98M1.5 17.1799H11.301" stroke="currentColor" stroke-width="1.5" stroke-linecap="round"></path><path d="M16.3802 17.2436C16.3802 18.569 15.3057 19.6436 13.9802 19.6436C12.6547 19.6436 11.5802 18.569 11.5802 17.2436C11.5802 15.9181 12.6547 14.8436 13.9802 14.8436C15.3057 14.8436 16.3802 15.9181 16.3802 17.2436Z" class="icon_main" stroke-width="1.5" stroke-linecap="round" style="stroke: #477BCE;"></path><path d="M7.98018 10.6436C7.98018 11.969 6.90566 13.0436 5.58018 13.0436C4.25469 13.0436 3.18018 11.969 3.18018 10.6436C3.18018 9.31807 4.25469 8.24356 5.58018 8.24356C6.90566 8.24356 7.98018 9.31807 7.98018 10.6436Z" class="icon_main" stroke-width="1.5" stroke-linecap="round"></path><path d="M16.3802 4.04355C16.3802 5.36904 15.3057 6.44355 13.9802 6.44355C12.6547 6.44355 11.5802 5.36904 11.5802 4.04355C11.5802 2.71807 12.6547 1.64355 13.9802 1.64355C15.3057 1.64355 16.3802 2.71807 16.3802 4.04355Z" class="icon_main" stroke-width="1.5" stroke-linecap="round" style="stroke: #477BCE;"></path></svg>