<svg width="16" height="14" viewBox="0 0 16 14" fill="none" xmlns="http://www.w3.org/2000/svg">
<path d="M1 11.8248C1 10.3231 2.09114 9.04403 3.57403 8.80737L3.7076 8.78606C4.89502 8.59655 6.10498 8.59655 7.2924 8.78606L7.42597 8.80737C8.90886 9.04403 10 10.3231 10 11.8248C10 12.4738 9.47383 13 8.82477 13H2.17523C1.52617 13 1 12.4738 1 11.8248Z" class="icon_main" stroke-width="1.5" style="stroke: #477BCE;"></path>
<path d="M8.125 3.625C8.125 5.07475 6.94975 6.25 5.5 6.25C4.05025 6.25 2.875 5.07475 2.875 3.625C2.875 2.17525 4.05025 1 5.5 1C6.94975 1 8.125 2.17525 8.125 3.625Z" class="icon_main" stroke-width="1.5" style="stroke: #477BCE;"></path>
<path d="M10 6.25C11.6108 6.25 12.9167 5.07475 12.9167 3.625C12.9167 2.17525 11.6108 1 10 1M11.9916 13H13.6942C14.4154 13 15 12.4738 15 11.8248C15 10.3231 13.7876 9.04403 12.14 8.80737V8.80737C12.0412 8.79318 11.9413 8.78606 11.8414 8.78606C11.5747 8.78606 11.4921 8.78606 11.0343 8.78606" stroke="currentColor" stroke-width="1.5" stroke-linecap="round"></path>
</svg>