<svg width="18" height="18" viewBox="0 0 18 18" fill="none" xmlns="http://www.w3.org/2000/svg">
<path d="M7.09888 14.2669L6.36175 14.1286L6.36175 14.1286L7.09888 14.2669ZM7.115 14.1811L7.85212 14.3194L7.85212 14.3194L7.115 14.1811ZM10.8854 14.1811L10.1483 14.3194L10.1483 14.3194L10.8854 14.1811ZM10.9015 14.2669L11.6386 14.1286L11.6386 14.1286L10.9015 14.2669ZM10.66 16.1266L11.3372 16.4489V16.4489L10.66 16.1266ZM9.88547 16.0088C9.70748 16.3828 9.86639 16.8303 10.2404 17.0083C10.6144 17.1863 11.0619 17.0274 11.2399 16.6534L9.88547 16.0088ZM7.34038 16.1266L6.66316 16.4489L6.66316 16.4489L7.34038 16.1266ZM6.76047 16.6534C6.93847 17.0274 7.38596 17.1863 7.75998 17.0083C8.134 16.8303 8.29291 16.3828 8.11492 16.0088L6.76047 16.6534ZM8.46774 12.7021L8.26722 11.9794L8.26722 11.9794L8.46774 12.7021ZM9.53264 12.7021L9.73317 11.9794L9.73317 11.9794L9.53264 12.7021ZM7.83601 14.4053L7.85212 14.3194L6.37787 14.0427L6.36175 14.1286L7.83601 14.4053ZM10.1483 14.3194L10.1644 14.4053L11.6386 14.1286L11.6225 14.0427L10.1483 14.3194ZM9.98278 15.8043L9.88547 16.0088L11.2399 16.6534L11.3372 16.4489L9.98278 15.8043ZM6.66316 16.4489L6.76047 16.6534L8.11492 16.0088L8.0176 15.8043L6.66316 16.4489ZM10.1644 14.4053C10.2534 14.8794 10.1896 15.3696 9.98278 15.8043L11.3372 16.4489C11.6807 15.7272 11.7861 14.9144 11.6386 14.1286L10.1644 14.4053ZM6.36175 14.1286C6.21425 14.9144 6.31973 15.7272 6.66316 16.4489L8.0176 15.8043C7.81076 15.3696 7.74701 14.8794 7.83601 14.4053L6.36175 14.1286ZM8.66827 13.4248C8.88554 13.3645 9.11485 13.3645 9.33212 13.4248L9.73317 11.9794C9.25349 11.8463 8.7469 11.8463 8.26722 11.9794L8.66827 13.4248ZM11.6225 14.0427C11.4364 13.0512 10.7053 12.2492 9.73317 11.9794L9.33212 13.4248C9.7484 13.5403 10.0669 13.8857 10.1483 14.3194L11.6225 14.0427ZM7.85212 14.3194C7.93353 13.8857 8.25199 13.5403 8.66827 13.4248L8.26722 11.9794C7.29511 12.2492 6.56397 13.0512 6.37787 14.0427L7.85212 14.3194Z" fill="currentColor"></path>
<path d="M15.825 7.09919C15.825 6.68498 15.4892 6.34919 15.075 6.34919C14.6608 6.34919 14.325 6.68498 14.325 7.09919H15.825ZM3.67499 7.09919C3.67499 6.68498 3.33921 6.34919 2.92499 6.34919C2.51078 6.34919 2.17499 6.68498 2.17499 7.09919H3.67499ZM11.0944 16.2559L10.9219 15.526H10.9219L11.0944 16.2559ZM6.90561 16.2559L7.07804 15.526L6.90561 16.2559ZM11.357 3.17852L10.8248 3.70697L11.357 3.17852ZM15.9678 8.88653C16.2596 9.18046 16.7345 9.18215 17.0284 8.89029C17.3224 8.59844 17.3241 8.12357 17.0322 7.82964L15.9678 8.88653ZM6.64298 3.17852L7.17518 3.70697L7.17518 3.70697L6.64298 3.17852ZM0.967794 7.82964C0.67594 8.12357 0.677623 8.59844 0.971553 8.89029C1.26548 9.18215 1.74035 9.18046 2.03221 8.88653L0.967794 7.82964ZM14.325 7.09919V11.1978H15.825V7.09919H14.325ZM3.67499 11.1978V7.09919H2.17499V11.1978H3.67499ZM10.9219 15.526C9.65778 15.8247 8.34221 15.8247 7.07804 15.526L6.73318 16.9858C8.22413 17.3381 9.77585 17.3381 11.2668 16.9858L10.9219 15.526ZM7.07804 15.526C5.08787 15.0559 3.67499 13.2657 3.67499 11.1978H2.17499C2.17499 13.9545 4.05948 16.3542 6.73318 16.9858L7.07804 15.526ZM11.2668 16.9858C13.9405 16.3542 15.825 13.9545 15.825 11.1978H14.325C14.325 13.2657 12.9121 15.0559 10.9219 15.526L11.2668 16.9858ZM10.8248 3.70697L15.9678 8.88653L17.0322 7.82964L11.8892 2.65008L10.8248 3.70697ZM6.11077 2.65008L0.967794 7.82964L2.03221 8.88653L7.17518 3.70697L6.11077 2.65008ZM11.8892 2.65008C11.3486 2.10565 10.8911 1.64258 10.4777 1.32492C10.0472 0.994139 9.57674 0.75 9 0.75V2.25C9.11362 2.25 9.26609 2.28561 9.56375 2.51434C9.8785 2.75619 10.2543 3.13238 10.8248 3.70697L11.8892 2.65008ZM7.17518 3.70697C7.74571 3.13238 8.1215 2.75619 8.43624 2.51434C8.7339 2.28562 8.88638 2.25 9 2.25V0.75C8.42326 0.75 7.95278 0.994139 7.5223 1.32492C7.1089 1.64258 6.65135 2.10565 6.11077 2.65008L7.17518 3.70697Z" class="icon_main_fill" style="fill: #477BCE;"></path>
</svg>