<svg width="18" height="18" viewBox="0 0 18 18" fill="none" xmlns="http://www.w3.org/2000/svg">
<path d="M8.05872 1.62224L7.86715 0.89712L8.05872 1.62224ZM9.94206 1.62224L9.75048 2.34736V2.34736L9.94206 1.62224ZM8.2503 2.34736C8.74164 2.21755 9.25914 2.21755 9.75048 2.34736L10.1336 0.897121C9.39117 0.70096 8.60961 0.70096 7.86715 0.89712L8.2503 2.34736ZM13.2313 4.88596C13.2313 3.00996 11.9544 1.37818 10.1336 0.89712L9.75048 2.34736C10.9251 2.65769 11.7313 3.70324 11.7313 4.88596L13.2313 4.88596ZM6.26953 4.88596C6.26953 3.70324 7.07569 2.65769 8.2503 2.34736L7.86715 0.89712C6.04635 1.37818 4.76953 3.00995 4.76953 4.88596L6.26953 4.88596Z" fill="currentColor"></path>
<path d="M1.81958 12.6692L2.54079 12.4634L1.81958 12.6692ZM1.81665 8.11341L2.53785 8.31922L1.81665 8.11341ZM16.1834 8.11341L15.4621 8.31922V8.31922L16.1834 8.11341ZM16.1804 12.6692L16.9016 12.875L16.1804 12.6692ZM12.3274 16.1822L12.1854 15.4458L12.3274 16.1822ZM5.67259 16.1822L5.81458 15.4458L5.67259 16.1822ZM6.31081 4.46702L6.4528 5.20346L6.31081 4.46702ZM11.6892 4.46702L11.8312 3.73059L11.6892 4.46702ZM12.5838 4.63952L12.4418 5.37595V5.37595L12.5838 4.63952ZM16.1059 7.84185L16.8271 7.63604V7.63604L16.1059 7.84185ZM5.41618 4.63952L5.27418 3.90308V3.90308L5.41618 4.63952ZM1.89414 7.84185L1.17293 7.63604L1.17293 7.63604L1.89414 7.84185ZM5.55817 5.37595L6.4528 5.20346L6.16882 3.73059L5.27418 3.90308L5.55817 5.37595ZM11.5472 5.20346L12.4418 5.37595L12.7258 3.90308L11.8312 3.73059L11.5472 5.20346ZM15.3847 8.04767L15.4621 8.31922L16.9046 7.9076L16.8271 7.63604L15.3847 8.04767ZM2.53785 8.31922L2.61535 8.04766L1.17293 7.63604L1.09544 7.90759L2.53785 8.31922ZM2.54079 12.4634C2.15476 11.1107 2.15237 9.67003 2.53785 8.31922L1.09544 7.90759C0.632629 9.52936 0.636111 11.2552 1.09837 12.875L2.54079 12.4634ZM15.4621 8.31922C15.8476 9.67004 15.8452 11.1107 15.4592 12.4634L16.9016 12.875C17.3639 11.2552 17.3674 9.52937 16.9046 7.9076L15.4621 8.31922ZM12.1854 15.4458C10.0817 15.8514 7.91826 15.8514 5.81458 15.4458L5.5306 16.9187C7.82188 17.3605 10.1781 17.3605 12.4694 16.9187L12.1854 15.4458ZM6.4528 5.20346C8.13499 4.87912 9.86501 4.87912 11.5472 5.20346L11.8312 3.73059C9.9614 3.37008 8.0386 3.37008 6.16882 3.73059L6.4528 5.20346ZM5.81458 15.4458C4.24038 15.1423 2.97333 13.9791 2.54079 12.4634L1.09837 12.875C1.68724 14.9385 3.40511 16.5089 5.5306 16.9187L5.81458 15.4458ZM12.4694 16.9187C14.5949 16.5089 16.3128 14.9385 16.9016 12.875L15.4592 12.4634C15.0267 13.9791 13.7596 15.1423 12.1854 15.4458L12.4694 16.9187ZM12.4418 5.37595C13.8611 5.6496 14.9962 6.68632 15.3847 8.04767L16.8271 7.63604C16.281 5.7224 14.6917 4.28213 12.7258 3.90308L12.4418 5.37595ZM5.27418 3.90308C3.30826 4.28213 1.71903 5.7224 1.17293 7.63604L2.61535 8.04766C3.00384 6.68632 4.1389 5.6496 5.55817 5.37595L5.27418 3.90308ZM1.77809 8.94371C6.43453 10.6661 11.5655 10.6661 16.2219 8.94371L15.7015 7.53686C11.3809 9.13501 6.6191 9.13501 2.29847 7.53686L1.77809 8.94371Z" class="icon_main_fill" style="stroke: #477BCE;"></path>
<path d="M5.66602 7.75V10.6667" stroke="currentColor" stroke-width="1.5" stroke-linecap="round"></path>
<path d="M12.334 7.75V10.6667" stroke="currentColor" stroke-width="1.5" stroke-linecap="round"></path>
</svg>