<svg width="19" height="21" viewBox="0 0 19 21" fill="none" xmlns="http://www.w3.org/2000/svg"><path d="M13.3754 18.131L13.5559 18.0061C14.1209 17.6154 14.4035 17.42 14.6562 17.2106C16.0294 16.0724 16.9518 14.486 17.2588 12.7341C17.3153 12.4117 17.3446 12.0706 17.4033 11.3885L17.4337 11.0358C17.5309 9.90671 17.5212 8.77105 17.4048 7.64379L17.3687 7.29494C17.165 5.32225 15.9539 3.59327 14.1644 2.72018C11.2221 1.28468 7.77785 1.28468 4.83559 2.72018C3.04608 3.59327 1.83504 5.32225 1.63127 7.29494L1.59524 7.64379C1.4788 8.77105 1.46911 9.90671 1.5663 11.0358L1.59666 11.3885C1.65537 12.0706 1.68473 12.4117 1.74123 12.7341C2.04821 14.486 2.97055 16.0724 4.3438 17.2106C4.59652 17.42 4.8791 17.6154 5.44406 18.0061L5.62461 18.131C6.39273 18.6621 6.77682 18.9277 7.16175 19.1123C8.63929 19.8207 10.3607 19.8207 11.8382 19.1123C12.2232 18.9277 12.6073 18.6621 13.3754 18.131Z" class="icon_main" stroke-width="1.5" style="stroke: #477BCE;"></path><path d="M17.4033 11.3885L17.4337 11.0358C17.5309 9.90671 17.5212 8.77105 17.4048 7.64379L17.3687 7.29494C17.165 5.32225 15.9539 3.59327 14.1644 2.72018C11.2221 1.28468 7.77785 1.28468 4.83559 2.72018C3.04608 3.59327 1.83504 5.32225 1.63127 7.29494L1.59524 7.64379C1.4788 8.77105 1.46911 9.90671 1.5663 11.0358L1.59666 11.3885C1.65537 12.0706 1.68473 12.4117 1.74123 12.7341C2.04821 14.486 2.97055 16.0724 4.3438 17.2106C4.59652 17.42 4.8791 17.6154 5.44406 18.0061L5.62461 18.131C6.39273 18.6621 6.77682 18.9277 7.16175 19.1123" stroke="currentColor" stroke-width="1.5" stroke-linecap="round"></path><path d="M6.75 10.3936L8.75 12.3936L12.25 8.64355" class="icon_main" stroke-width="1.5" stroke-linecap="round" stroke-linejoin="round" style="stroke: #477BCE;"></path></svg>