<svg width="16" height="17" viewBox="0 0 16 17" fill="none" xmlns="http://www.w3.org/2000/svg">
<path d="M1.14651 6.134C1.71018 3.68174 3.54739 1.77646 5.88882 1.21598L6.07469 1.17149C7.33452 0.86992 8.64278 0.86992 9.90261 1.17149L10.2202 1.24751C12.4809 1.78868 14.2548 3.6283 14.7991 5.99604L14.8731 6.31815C15.1535 7.53803 15.1535 8.8105 14.8731 10.0304C14.3085 12.4869 12.2158 14.2176 9.81017 14.2176H8.92569C8.63523 14.2176 8.37235 14.4049 8.26196 14.6871C7.86082 15.7127 6.74095 16.216 5.76336 15.7981L5.66489 15.756C3.40582 14.7902 1.72181 12.7174 1.14933 10.2268C0.841106 8.88588 0.83829 7.47491 1.14651 6.134Z" stroke="currentColor" stroke-width="1.5" stroke-linecap="round"></path>
<path d="M5.24683 5.99414H10.2732M5.24683 8.87428H8.44544" class="icon_main" stroke-width="1.5" stroke-linecap="round" style="stroke: #477BCE;"></path>
</svg>