<svg width="16" height="20" viewBox="0 0 16 20" fill="none" xmlns="http://www.w3.org/2000/svg"><path d="M15.75 9.45306C15.75 9.03885 15.4142 8.70306 15 8.70306C14.5858 8.70306 14.25 9.03885 14.25 9.45306H15.75ZM1.75 9.45306C1.75 9.03885 1.41421 8.70306 1 8.70306C0.585786 8.70306 0.25 9.03885 0.25 9.45306H1.75ZM7.25 19C7.25 19.4142 7.58579 19.75 8 19.75C8.41421 19.75 8.75 19.4142 8.75 19H7.25ZM14.25 9.45306C14.25 13.1821 11.4107 16.1284 8 16.1284V17.6284C12.3213 17.6284 15.75 13.9259 15.75 9.45306H14.25ZM8 16.1284C4.58929 16.1284 1.75 13.1821 1.75 9.45306H0.25C0.25 13.9259 3.67872 17.6284 8 17.6284V16.1284ZM7.25 16.8784V19H8.75V16.8784H7.25Z" fill="currentColor"></path><path d="M8.45001 13.6323L8.55647 14.3747L8.55648 14.3747L8.45001 13.6323ZM7.55926 13.6323L7.66572 12.8899H7.66572L7.55926 13.6323ZM7.55259 1.03274L7.44457 0.290562L7.55259 1.03274ZM8.45668 1.03274L8.5647 0.290562H8.5647L8.45668 1.03274ZM3.88008 9.91268L3.13809 10.022L3.88008 9.91268ZM3.88027 4.75693L3.13829 4.64758L3.88027 4.75693ZM12.1266 4.77402L12.8687 4.66576L12.1266 4.77402ZM12.1268 9.8956L11.3846 9.78734L12.1268 9.8956ZM8.54978 13.618L8.44332 12.8756L8.44331 12.8756L8.54978 13.618ZM8.55343 1.04682L8.44541 1.789H8.44541L8.55343 1.04682ZM7.44044 1.04907L7.54846 1.79125L7.44044 1.04907ZM7.4441 13.6158L7.33764 14.3582H7.33764L7.4441 13.6158ZM7.54846 1.79125L7.66061 1.77492L7.44457 0.290562L7.33242 0.306886L7.54846 1.79125ZM8.34866 1.77492L8.44541 1.789L8.66145 0.304644L8.5647 0.290562L8.34866 1.77492ZM8.44331 12.8756L8.34354 12.8899L8.55648 14.3747L8.65624 14.3604L8.44331 12.8756ZM7.66572 12.8899L7.55056 12.8734L7.33764 14.3582L7.4528 14.3747L7.66572 12.8899ZM8.34355 12.8899C8.11859 12.9221 7.89068 12.9221 7.66572 12.8899L7.4528 14.3747C7.81899 14.4272 8.19029 14.4272 8.55647 14.3747L8.34355 12.8899ZM7.66061 1.77492C7.88893 1.74169 8.12034 1.74169 8.34866 1.77492L8.5647 0.290562C8.1931 0.236479 7.81617 0.236479 7.44457 0.290562L7.66061 1.77492ZM4.62206 9.80333C4.38107 8.16812 4.38124 6.5016 4.62226 4.86628L3.13829 4.64758C2.87592 6.4278 2.87571 8.2417 3.13809 10.022L4.62206 9.80333ZM11.3844 4.88228C11.6215 6.50721 11.6217 8.16253 11.3846 9.78734L12.8689 10.0039C13.1269 8.23535 13.1267 6.43416 12.8687 4.66576L11.3844 4.88228ZM11.3846 9.78734C11.1451 11.4291 9.92649 12.6629 8.44332 12.8756L8.65623 14.3604C10.8489 14.046 12.5412 12.2505 12.8689 10.0039L11.3846 9.78734ZM12.8687 4.66576C12.5413 2.42095 10.8522 0.623499 8.66145 0.304644L8.44541 1.789C9.92762 2.00473 11.145 3.24066 11.3844 4.88228L12.8687 4.66576ZM4.62226 4.86628C4.86285 3.23377 6.07433 2.0058 7.54846 1.79125L7.33242 0.306886C5.15066 0.624428 3.46766 2.41269 3.13829 4.64758L4.62226 4.86628ZM3.13809 10.022C3.46773 12.2587 5.15401 14.0451 7.33764 14.3582L7.55056 12.8734C6.07546 12.6618 4.86268 11.436 4.62206 9.80333L3.13809 10.022Z" class="icon_main_fill" style="fill: #477BCE;"></path></svg>