<svg width="20" height="20" viewBox="0 0 20 20" fill="none" xmlns="http://www.w3.org/2000/svg">
<path d="M18.6471 13.0496C17.9956 15.827 15.827 17.9956 13.0496 18.6471C11.0437 19.1176 8.95626 19.1176 6.95043 18.6471C4.17301 17.9956 2.00437 15.827 1.35288 13.0496C0.882374 11.0437 0.882375 8.95626 1.35288 6.95044C2.00437 4.17301 4.173 2.00437 6.95043 1.35288C8.95625 0.882376 11.0437 0.882376 13.0496 1.35288C15.827 2.00437 17.9956 4.173 18.6471 6.95043C19.1176 8.95625 19.1176 11.0437 18.6471 13.0496Z" class="icon_main" stroke-width="1.5" style="stroke: #477BCE;"></path>
<path d="M18.6471 13.0496C19.1176 11.0437 19.1176 8.95625 18.6471 6.95043C17.9956 4.173 15.827 2.00437 13.0496 1.35288C11.0437 0.882376 8.95625 0.882376 6.95043 1.35288C4.173 2.00437 2.00437 4.17301 1.35288 6.95044C0.882375 8.95626 0.882375 11.0437 1.35288 13.0496C2.00437 15.827 4.17301 17.9956 6.95043 18.6471" stroke="currentColor" stroke-width="1.5" stroke-linecap="round"></path>
<path d="M12.5 10H7.5M10 12.5L10 7.5" class="icon_main" stroke-width="1.5" stroke-linecap="round" style="stroke: #477BCE;"></path>
</svg>