<svg width="18" height="18" viewBox="0 0 18 18" fill="none" xmlns="http://www.w3.org/2000/svg">
<path d="M7.04495 2.82205C7.77675 1.05932 10.2233 1.05932 10.9551 2.82205L11.4648 4.04986C11.7645 4.77175 12.4225 5.2722 13.1856 5.35868L14.608 5.51987C16.4044 5.72344 17.1463 7.97958 15.8344 9.24903L14.6267 10.4176C14.0957 10.9314 13.8611 11.6882 14.0057 12.4204L14.2973 13.8965C14.6664 15.765 12.6647 17.1757 11.0848 16.1606L10.1309 15.5476C9.4397 15.1035 8.5603 15.1035 7.86909 15.5476L6.91516 16.1606C5.33528 17.1757 3.33359 15.765 3.7027 13.8965L3.99429 12.4204C4.13894 11.6882 3.90431 10.9314 3.37331 10.4176L2.16559 9.24903C0.853651 7.97958 1.5956 5.72344 3.39195 5.51987L4.81438 5.35868C5.57754 5.2722 6.23553 4.77175 6.53522 4.04986L7.04495 2.82205Z" stroke="currentColor" stroke-width="1.5" stroke-linecap="round" stroke-linejoin="round"></path>
<path d="M7.86909 15.5476L6.91516 16.1606C5.33528 17.1757 3.33359 15.765 3.7027 13.8965L3.99429 12.4204C4.13894 11.6882 3.90431 10.9314 3.37331 10.4176L2.16559 9.24903C0.853651 7.97958 1.5956 5.72344 3.39195 5.51987L4.81438 5.35868C5.57754 5.27219 6.23553 4.77175 6.53522 4.04986L7.04495 2.82205C7.77675 1.05932 10.2233 1.05932 10.9551 2.82205L11.4648 4.04986C11.7645 4.77175 12.4225 5.27219 13.1856 5.35868L14.608 5.51987C16.4044 5.72344 17.1463 7.97958 15.8344 9.24903L14.6267 10.4176C14.0957 10.9314 13.8611 11.6882 14.0057 12.4204" class="icon_main" stroke-width="1.5" stroke-linecap="round" stroke-linejoin="round" style="stroke: #477BCE;"></path>
</svg>