<svg width="12" height="16" viewBox="0 0 12 16" fill="none" xmlns="http://www.w3.org/2000/svg">
<path d="M1 10.0519H9.49245C10.6722 10.0519 11.3933 8.6449 10.7718 7.55588L10.3637 6.84101C9.96221 6.13751 9.96222 5.24772 10.3637 4.54422L10.7718 3.82935C11.3933 2.74033 10.6722 1.33331 9.49245 1.33331L1 1.33331L1 10.0519ZM1 10.0519L1 14.6666" class="icon_main" stroke-width="1.5" stroke-linecap="round" stroke-linejoin="round" style="stroke: #477BCE;"></path>
<path d="M9.49245 10.0519C10.6722 10.0519 11.3933 8.6449 10.7718 7.55588L10.3637 6.84101C9.96221 6.13751 9.96222 5.24772 10.3637 4.54422L10.7718 3.82935C11.3933 2.74033 10.6722 1.33331 9.49245 1.33331L1 1.33331L1 4.02595" stroke="currentColor" stroke-width="1.5" stroke-linecap="round" stroke-linejoin="round"></path>
</svg>