<svg width="21" height="21" viewBox="0 0 21 21" fill="none" xmlns="http://www.w3.org/2000/svg"><path d="M6.5 7.64355L10.5 7.64355" class="icon_main" style="stroke: #477BCE;" stroke-width="1.5" stroke-linecap="round"></path><path d="M1.38539 13.7948L2.11329 13.6141L1.38539 13.7948ZM1.38539 7.4923L2.11329 7.67305L1.38539 7.4923ZM19.6146 7.49231L20.3425 7.31156L19.6146 7.49231ZM19.6146 13.7948L18.8867 13.6141L19.6146 13.7948ZM13.6156 19.3025L13.4533 18.5703H13.4533L13.6156 19.3025ZM7.38443 19.3025L7.54668 18.5703L7.38443 19.3025ZM7.38443 1.9846L7.54668 2.71684L7.38443 1.9846ZM13.6156 1.9846L13.7778 1.25236V1.25236L13.6156 1.9846ZM6.93056 19.2019L6.7683 19.9342L6.93056 19.2019ZM14.0694 19.2019L14.2317 19.9342H14.2317L14.0694 19.2019ZM14.0694 2.08517L13.9072 2.81741V2.81741L14.0694 2.08517ZM6.93056 2.08517L6.7683 1.35294V1.35294L6.93056 2.08517ZM17.1933 13.1472L17.0588 13.885L17.0588 13.885L17.1933 13.1472ZM17.1347 13.1365L17.2693 12.3987L17.2693 12.3987L17.1347 13.1365ZM17.1347 8.15059L17.2693 8.88842L17.2693 8.88842L17.1347 8.15059ZM17.1933 8.1399L17.0588 7.40207L17.0588 7.40207L17.1933 8.1399ZM19.5 9.13085C19.8795 9.29685 20.3217 9.12378 20.4877 8.74429C20.6537 8.36479 20.4807 7.92258 20.1012 7.75658L19.5 9.13085ZM20.1012 13.5305C20.4807 13.3645 20.6537 12.9223 20.4877 12.5428C20.3217 12.1633 19.8795 11.9903 19.5 12.1563L20.1012 13.5305ZM15.0782 11.2718L14.357 11.4778L15.0782 11.2718ZM15.0782 10.0153L15.7993 10.2213L15.0782 10.0153ZM7.09281 2.81741L7.54668 2.71684L7.22218 1.25236L6.7683 1.35294L7.09281 2.81741ZM13.4533 2.71684L13.9072 2.81741L14.2317 1.35293L13.7778 1.25236L13.4533 2.71684ZM13.9072 18.4697L13.4533 18.5703L13.7778 20.0347L14.2317 19.9342L13.9072 18.4697ZM7.54668 18.5703L7.09281 18.4697L6.7683 19.9342L7.22218 20.0347L7.54668 18.5703ZM2.11329 13.6141C1.6289 11.6634 1.6289 9.62375 2.11329 7.67305L0.657498 7.31156C0.114168 9.49965 0.114167 11.7875 0.657498 13.9756L2.11329 13.6141ZM18.8867 7.67305C19.3711 9.62376 19.3711 11.6634 18.8867 13.6141L20.3425 13.9755C20.8858 11.7875 20.8858 9.49966 20.3425 7.31156L18.8867 7.67305ZM13.4533 18.5703C11.508 19.0013 9.49198 19.0013 7.54668 18.5703L7.22218 20.0347C9.38122 20.5132 11.6188 20.5132 13.7778 20.0347L13.4533 18.5703ZM7.54668 2.71684C9.49198 2.28579 11.508 2.28579 13.4533 2.71684L13.7778 1.25236C11.6188 0.773952 9.38122 0.773951 7.22218 1.25236L7.54668 2.71684ZM7.09281 18.4697C4.64627 17.9276 2.71736 16.0468 2.11329 13.6141L0.657498 13.9756C1.39874 16.9607 3.76576 19.2689 6.7683 19.9342L7.09281 18.4697ZM14.2317 19.9342C17.2342 19.2689 19.6013 16.9607 20.3425 13.9755L18.8867 13.6141C18.2826 16.0468 16.3537 17.9276 13.9072 18.4697L14.2317 19.9342ZM13.9072 2.81741C16.3537 3.35953 18.2826 5.24035 18.8867 7.67305L20.3425 7.31156C19.6013 4.32644 17.2342 2.01825 14.2317 1.35293L13.9072 2.81741ZM6.7683 1.35294C3.76576 2.01825 1.39874 4.32643 0.657498 7.31156L2.11329 7.67305C2.71736 5.24035 4.64627 3.35953 7.09281 2.81741L6.7683 1.35294ZM17.3279 12.4094L17.2693 12.3987L17.0002 13.8744L17.0588 13.885L17.3279 12.4094ZM17.2693 8.88842L17.3279 8.87774L17.0588 7.40207L17.0002 7.41275L17.2693 8.88842ZM17.3279 8.87774C18.061 8.74407 18.8173 8.8322 19.5 9.13085L20.1012 7.75658C19.1449 7.33828 18.0856 7.21485 17.0588 7.40207L17.3279 8.87774ZM17.0588 13.885C18.0856 14.0723 19.1449 13.9488 20.1012 13.5305L19.5 12.1563C18.8173 12.4549 18.061 12.543 17.3279 12.4094L17.0588 13.885ZM15.7993 11.0658C15.7205 10.7898 15.7205 10.4973 15.7993 10.2213L14.357 9.80934C14.2013 10.3546 14.2013 10.9325 14.357 11.4778L15.7993 11.0658ZM17.0002 7.41275C15.7349 7.64346 14.7103 8.57256 14.357 9.80934L15.7993 10.2213C15.9958 9.53335 16.5657 9.01671 17.2693 8.88842L17.0002 7.41275ZM17.2693 12.3987C16.5657 12.2704 15.9958 11.7538 15.7993 11.0658L14.357 11.4778C14.7103 12.7145 15.7349 13.6436 17.0002 13.8744L17.2693 12.3987Z" fill="currentColor"></path></svg>