<svg width="20" height="20" viewBox="0 0 20 20" fill="none" xmlns="http://www.w3.org/2000/svg">
<path d="M1.35288 6.95043C2.00437 4.17301 4.17301 2.00437 6.95043 1.35287C8.95625 0.882372 11.0437 0.882372 13.0496 1.35287C15.827 2.00437 17.9956 4.17301 18.6471 6.95043C19.1176 8.95625 19.1176 11.0437 18.6471 13.0496C17.9956 15.827 15.827 17.9956 13.0496 18.6471C11.0437 19.1176 8.95626 19.1176 6.95044 18.6471C4.17301 17.9956 2.00437 15.827 1.35288 13.0496C0.882374 11.0437 0.882374 8.95626 1.35288 6.95043Z" class="icon_main" stroke-width="1.5" style="stroke: #477BCE;"></path>
<path d="M1.35288 6.95043C0.882374 8.95625 0.882374 11.0437 1.35288 13.0496C2.00437 15.827 4.17301 17.9956 6.95044 18.6471C8.95626 19.1176 11.0437 19.1176 13.0496 18.6471C15.827 17.9956 17.9956 15.827 18.6471 13.0496C19.1176 11.0437 19.1176 8.95625 18.6471 6.95043C17.9956 4.17301 15.827 2.00437 13.0496 1.35287" stroke="currentColor" stroke-width="1.5" stroke-linecap="round"></path>
<path d="M5.31836 7.39934L6.35863 8.43962L8.43918 6.35907M11.0399 7.91948H14.6808M5.31836 12.6007L6.35863 13.641L8.43918 11.5604M11.0399 13.1208H14.6808" class="icon_main" stroke-width="1.5" stroke-linecap="round" stroke-linejoin="round" style="stroke: #477BCE;"></path>
</svg>