<svg width="20" height="20" viewBox="0 0 16 16" fill="none" xmlns="http://www.w3.org/2000/svg"><path d="M9.36247 2.06871C9.36247 1.41934 8.88789 0.867467 8.24584 0.770221C8.08288 0.745538 7.91713 0.745538 7.75416 0.770221C7.11211 0.867467 6.63753 1.41935 6.63753 2.06872V2.98702C6.2707 3.09171 5.92126 3.23763 5.59454 3.41943L4.94492 2.76981C4.48575 2.31064 3.75994 2.25599 3.23718 2.64122C3.10449 2.739 2.98729 2.8562 2.88951 2.98889C2.50427 3.51165 2.55893 4.23747 3.0181 4.69665L3.66771 5.34626C3.48591 5.67298 3.34 6.02242 3.23531 6.38924H2.31701C1.66764 6.38924 1.11576 6.86382 1.01851 7.50587C0.993829 7.66884 0.993829 7.83459 1.01851 7.99755C1.11576 8.6396 1.66764 9.11418 2.317 9.11418H3.2353C3.34 9.481 3.48591 9.83044 3.66771 10.1572L3.01811 10.8068C2.55893 11.2659 2.50428 11.9918 2.88951 12.5145C2.98729 12.6472 3.1045 12.7644 3.23718 12.8622C3.75994 13.2474 4.48576 13.1928 4.94493 12.7336L5.59454 12.084C5.92126 12.2658 6.2707 12.4117 6.63752 12.5164V13.4347C6.63752 14.0841 7.11211 14.636 7.75416 14.7332C7.91712 14.7579 8.08288 14.7579 8.24584 14.7332C8.88789 14.636 9.36247 14.0841 9.36247 13.4347V12.5164C9.72929 12.4117 10.0787 12.2658 10.4055 12.084L11.0551 12.7336C11.5142 13.1928 12.2401 13.2474 12.7628 12.8622C12.8955 12.7644 13.0127 12.6472 13.1105 12.5145C13.4957 11.9918 13.4411 11.266 12.9819 10.8068L12.3323 10.1572C12.5141 9.83045 12.66 9.48101 12.7647 9.11418H13.683C14.3324 9.11418 14.8842 8.6396 14.9815 7.99755C15.0062 7.83459 15.0062 7.66884 14.9815 7.50587C14.8842 6.86382 14.3324 6.38924 13.683 6.38924H12.7647C12.66 6.02241 12.5141 5.67297 12.3323 5.34625L12.9819 4.69663C13.4411 4.23746 13.4957 3.51165 13.1105 2.98889C13.0127 2.8562 12.8955 2.739 12.7628 2.64122C12.2401 2.25598 11.5142 2.31064 11.0551 2.76981L10.4055 3.41942C10.0787 3.23762 9.72929 3.09171 9.36247 2.98701V2.06871Z" stroke="currentColor" stroke-linecap="round" stroke-linejoin="round"></path><path d="M5.91602 7.57518C5.91602 6.4449 6.84876 5.52863 7.99935 5.52863C9.14994 5.52863 10.0827 6.4449 10.0827 7.57518C10.0827 8.70547 9.14994 9.62174 7.99935 9.62174C6.84876 9.62174 5.91602 8.70547 5.91602 7.57518Z" stroke="currentColor"></path></svg>