<svg width="17" height="20" viewBox="0 0 17 20" fill="none" xmlns="http://www.w3.org/2000/svg"><path d="M1.5 17.1115C1.5 14.6984 3.19732 12.643 5.50404 12.2627L5.71182 12.2284C7.55892 11.9239 9.44108 11.9239 11.2882 12.2284L11.496 12.2627C13.8027 12.643 15.5 14.6984 15.5 17.1115C15.5 18.1545 14.6815 19 13.6719 19H3.32813C2.31848 19 1.5 18.1545 1.5 17.1115Z" stroke="currentColor" stroke-width="1.5"></path><path d="M12.5834 4.9375C12.5834 7.11212 10.7552 8.875 8.50002 8.875C6.24486 8.875 4.41669 7.11212 4.41669 4.9375C4.41669 2.76288 6.24486 1 8.50002 1C10.7552 1 12.5834 2.76288 12.5834 4.9375Z" stroke="currentColor" stroke-width="1.5"></path></svg>